Patient4_TMGait_0pt5_02_right_20_EMG.mot
version=1
nRows=33
nColumns=33
inDegrees=no
endheader
time	1LAddLong	2LGlutMax	3LGlutMed	4LIliopsoas	5LSemiMemb	6LBicFemLong	7LRecFem	8LVastMed	9LVastLat	10LGasMed	11LTibAnt	12lTibPost	13LPeroneusLong	14LSol	15LExtDigLong	16LFlexDigLong	17RAddLong	18RGlutMax	19RGlutMed	20RIliopsoas	21RSemiMemb	22RBicFemLong	23RRecFem	24RVastMed	25RVastLat	26RGasMed	27RTibAnt	28RTibPost	29RPeroneusLong	30RSol	31RExtDigLong	32RFlexDigLong
26.87	-0.097046	0.065308	0.008087	0.010071	-0.039978	-0.038605	0.20493	0.0177	0.2327	1.243	0.006866	-0.001068	0.083618	0.024261	0.089722	-0.002899	0.036774	-0.028534	-0.06424	0.1413	-0.21515	0.07431	0.071869	-0.31845	-0.077972	-0.006714	0.91034	-0.003662	-0.078888	1.2299	-0.003052	-0.022583
26.871	-0.045471	0.088501	0.050812	0.000916	-0.070496	0.037689	0.17609	0.012512	0.13855	1.196	-0.018005	-0.12238	0.28214	0.12009	0.048828	0.004425	0.066071	-0.035858	-0.11078	0.07431	-0.26611	0.095978	0.00885	-0.34668	-0.11398	0.014343	0.36529	0.30579	0.038757	1.0345	-0.002899	-0.017548
26.872	-0.037689	0.065308	0.054932	0.000916	-0.076599	0.11643	0.13306	0.006714	0.001526	0.92819	-0.018616	0.28061	0.83145	0.14694	-0.017548	0.00351	0.038147	0.011444	-0.3627	-0.020752	0.067596	0.098877	0.006256	-0.20035	-0.12375	0.014801	-0.43961	0.087738	0.35431	0.46448	-0.002594	-0.02243
26.873	0.057373	0.097046	0.10223	-0.006561	-0.031281	0.18646	0.07843	-0.009308	-0.1442	0.31342	-0.007324	0	0.47226	-0.11826	0.013123	0.008698	-0.004883	0.093689	0.15579	-0.042877	0.43366	0.037842	0.025787	0.028381	-0.072479	-0.016785	-0.055847	0.010681	0.55084	-0.31754	-0.000305	-0.032806
26.874	0.015717	0.068817	0.095825	0.003357	-0.035095	0.23697	0.019684	-0.010681	-0.25803	-0.030975	0.019379	-0.16373	-0.57083	-0.37415	0.076294	-0.016327	-0.012817	0.087433	-0.23148	-0.036926	0.11551	-0.05249	-0.10483	0.13092	-0.051727	-0.041962	0.31067	-0.006256	0.42602	-0.65903	-0.004578	-0.029449
26.875	0.037384	0.06897	0.065613	-0.014191	-0.079956	0.27313	-0.014648	0.007019	-0.32959	-0.35309	0.04776	0.027466	-0.76523	-0.44632	0.027924	0.016022	-0.007172	0.061798	-0.2385	0.034943	0.023346	-0.16251	-0.35172	0.18707	-0.061493	-0.035248	0.089874	-0.014343	0.13794	-0.53146	-0.003967	-0.027466
26.876	0.024872	0.014496	0.016937	0.001678	-0.055847	0.29159	0.007782	0.005951	-0.30441	-0.76446	0.031281	0.005341	-0.094604	-0.34882	-0.059357	0.059814	0.027313	0.072479	1.1072	0.021362	0.056305	-0.13245	-0.3447	0.049591	0.021515	-0.026093	-0.24017	-0.021973	-0.000305	-0.17899	-0.003967	-0.027466
26.877	0.019684	-0.025177	-0.01358	0.000458	0.026855	0.31052	0.002136	0.006866	-0.19012	-0.98343	0.010834	0.015717	-0.077972	-0.096283	-0.035553	0.041351	0.048065	0.059814	0.13245	0.002747	0.014038	-0.036469	-0.39612	0.000763	0.21133	0.034943	-0.81329	-0.02243	0.16907	-0.081787	-0.000305	-0.029449
26.878	0.011444	-0.020599	-0.011597	-0.012817	0.046387	0.22675	0.076447	-0.006409	-0.01709	-0.7962	0.015106	-0.000916	-0.48752	0.19058	0.007324	0.035248	0.043335	0.063324	0.016479	0.029602	-0.080566	-0.027161	-0.4602	-0.053406	0.25726	0.040741	-0.6572	-0.031738	0.18906	-0.31845	0.000763	-0.032349
26.879	-0.006409	-0.067139	-0.033875	0.009003	0.012665	0.10483	0.13351	0.006256	0.028534	-0.44357	0.003052	0.002289	0.12451	0.13321	-0.020905	0.025635	0.019531	0.052643	0.30594	0.053864	-0.33081	0.010223	-0.32761	0.005188	0.26093	0.059967	-0.48431	-0.010223	0.14267	-0.44723	-0.002594	-0.039673
26.88	-0.014343	-0.064545	-0.048676	0.003662	-0.047913	-0.15121	0.085754	0.012054	0.053406	-0.38788	0.001526	0.041351	0.75012	0.027008	-0.005035	0.014801	-0.03479	0.064697	0.32059	0.069427	-0.24338	0.052338	-0.36331	0.16266	0.24506	0.032959	-0.40771	0.004883	0.085144	-0.3064	0.002899	-0.045929
26.881	-0.018158	-0.083466	-0.062561	0.002136	-0.050507	-0.33173	0.097198	0.003204	0.05127	-0.37293	0.010223	0.17303	0.19638	-0.040741	0.043945	0.037842	-0.037994	0.065613	0.37857	-0.022736	-0.29007	0.15442	-0.354	0.15427	0.16251	0.020752	0.070343	-0.011292	0.2002	-0.071564	-0.000305	-0.046997
26.882	-0.016327	-0.078125	-0.061188	0.005646	0.076599	-0.18494	0.16724	-0.015564	0.02533	-0.32501	0.032349	-0.12817	-0.35934	0.001831	0.077057	0.036774	-0.022583	0.1149	0.35797	-0.053711	-0.065918	0.15564	-0.22766	0.087891	0.004425	0.023041	0.39993	-0.00946	0.14145	0.09201	-0.001068	-0.044403
26.883	-0.024414	-0.1091	-0.052795	-0.009613	0.23621	-0.045776	0.19592	0.003357	0.041962	-0.23529	0.019836	-0.12466	-0.35858	0.021515	0.079803	0.063019	-0.054779	0.11826	0.2121	-0.004578	-0.032806	0.28976	-0.37918	0.17487	-0.086823	0.015106	0.4863	-0.016937	-0.066833	0.22247	-0.001221	-0.047302
26.884	-0.042419	-0.15274	-0.096283	-0.007629	0.13931	-0.11734	0.18585	0.003052	0.024719	0.11902	0.03006	-0.000305	-0.9343	-0.11063	-0.032959	0.096893	-0.075073	0.21423	-0.078278	0.043945	-0.039825	0.2861	-0.39719	0.22964	-0.085297	0.007324	0.046082	-0.015564	-0.19165	0.074158	-0.004578	-0.047913
26.885	-0.049591	-0.14358	-0.05188	-0.002594	-0.016022	0.011902	0.16617	0.00946	0.035858	0.2652	0.036621	0.008698	-0.31784	-0.25543	-0.10437	0.15289	-0.007935	0.12543	-0.18738	0.097351	0.063782	0.2272	-0.26169	0.084076	-0.019989	0.019531	-0.62531	-0.016632	-0.10544	-0.13611	-0.002289	-0.045624
26.886	-0.04303	-0.21713	0.022278	0.003815	-0.13641	-0.13245	0.17364	0.015564	-0.009155	0.19455	-0.000153	0.018158	0.89859	-0.11475	-0.02121	0.15182	0.015564	0.04776	-0.28107	0.11566	0.040131	0.13733	-0.20248	-0.014343	0.002899	0.019531	-0.22247	-0.011292	0.037384	-0.45242	-0.00351	-0.045776
26.887	-0.017242	-0.2385	0.072937	0.010681	-0.19348	-0.28122	0.10819	0.005341	-0.012054	0.18219	-0.03952	0.028534	1.5183	-0.074158	-0.096893	0.14679	0.020599	0.078888	0.020294	0.063019	-0.077362	0.065308	-0.14313	-0.002899	0.006561	0.002136	0.36285	0.00885	0.23712	-0.41306	-0.003052	-0.035858
26.888	0.012512	-0.27664	0.002747	0.024872	-0.19089	-0.23453	0.080414	0.011902	0.048218	0.66193	-0.025177	0.045624	0.67047	-0.040894	-0.15884	0.16693	0.034943	0.11185	0.19653	-0.02243	-0.12573	-0.11063	-0.23483	0.10666	0.000305	0.011444	-0.007935	0.000305	0.27496	-0.1683	0.002441	-0.040894
26.889	0.02121	-0.38834	-0.021973	-0.005493	-0.097656	-0.17349	0.071564	-0.002441	0.033875	0.38574	0.006256	0.15396	0.043488	-0.087738	-0.20721	0.17975	0.011902	0.038452	0.26657	-0.057068	0.18372	-0.20325	-0.23529	0.018005	0.037231	0.004272	-0.15778	0.012512	-0.04715	-0.041504	-0.002136	-0.041504
26.89	0.019379	-0.47638	-0.058899	0.006104	0.11444	-0.2771	0.052795	0.036621	0.003357	-0.40161	0.027771	0.28641	-0.057526	-0.040283	-0.19333	0.16434	0.060883	0.062866	0.19745	-0.07782	0.37033	-0.1413	-0.18997	-0.093842	0.1033	-0.014343	-0.26657	-0.053253	-0.22186	0.47577	-0.003357	-0.035248
26.891	0.013733	-0.59143	-0.082397	-0.004425	0.14358	-0.33859	0.049438	0.072632	-0.009766	0.20798	0.04715	-0.4454	-0.6308	-0.024567	-0.20309	0.12222	0.071411	0.10681	-0.005951	-0.028381	0.27435	0.072784	-0.24368	-0.1828	0.16846	0.005798	-0.44952	0.000153	0.22324	1.2248	-0.00351	-0.021973
26.892	0.013275	-0.73044	-0.048828	-0.015869	0.11093	-0.24857	0.03891	-0.02121	-0.098724	0.73715	0.047913	0.019989	-0.095673	0.14618	-0.17425	0.059052	0.048523	0.13733	-0.032196	-0.10193	-0.027161	0.18051	-0.18448	-0.16754	0.24048	0.009613	-0.52322	-0.000153	0.46249	1.6177	-0.002747	-0.009918
26.893	0.023651	-0.81512	-0.012665	-0.00061	0.040741	-0.13275	0.02533	-0.011444	-0.033417	0.71899	0.059814	-0.005798	0.14481	0.063019	-0.030823	0.028992	0.020599	0.11322	0.0177	-0.20721	-0.15015	-0.015106	-0.17075	-0.21927	0.26367	0.006409	-0.21637	0.033264	0.24689	1.4174	-0.00061	-0.010681
26.894	0.016479	-0.91568	0.007782	0.010223	-0.03479	-0.030823	0.020294	-0.012817	0.067596	0.13687	0.06134	-0.063324	-0.19714	-0.11169	0.078888	0.007935	0.049591	0.085907	0.037689	-0.15976	0.21454	-0.2359	-0.087128	-0.26199	0.21683	0.001831	0.40894	0.027008	-0.059204	0.42343	-0.001068	-0.008545
26.895	0.012054	-1.0422	-0.048676	0.021667	-0.070801	-0.014496	0.025024	-0.01297	0.11047	-0.73746	0.022583	-0.046844	-0.73318	-0.2829	0.079041	0.005188	0.04837	0.043182	0.22522	-0.028839	0.27115	-0.17105	-0.00946	-0.16617	0.17761	-0.02594	0.4512	-0.05722	-0.31937	-0.089111	-0.00061	-0.018311
26.896	0.00946	-1.0774	-0.007477	0.005035	-0.05722	-0.019531	-0.032959	-0.017395	0.11078	-0.92743	0.006866	-0.03479	-0.37766	-0.32638	0.099792	-0.003052	0.034485	-0.013733	0.18997	0.14664	0.05127	-0.031433	0.043793	-0.16144	-0.11795	-0.046844	-0.49271	-0.15671	-0.33249	-0.36652	-0.001984	-0.009003
26.897	-0.004578	-1.1021	0.000763	-0.001526	-0.092621	0.013275	-0.082703	-0.005798	0.093231	-0.57983	0.054016	-0.020905	-0.10529	-0.065765	0.16571	-0.041199	0.025787	-0.031281	0.22934	0.16968	-0.3093	-0.059357	-0.071106	-0.13779	-0.65842	-0.013733	-0.8017	-0.1001	-0.27618	-0.68603	0.001526	-0.029907
26.898	-0.012665	-1.0539	-0.050964	0.002899	-0.13382	0.065765	-0.12955	-0.018158	0.045319	-0.29724	0.090485	-0.000153	-0.2681	0.38162	0.20157	-0.1207	0.007324	-0.02594	0.24231	0.040588	-0.28656	-0.17014	-0.19791	-0.058136	-0.33798	0.00412	-0.37293	0.018463	-0.20813	-0.77774	0.001831	-0.014038
26.899	-0.014191	-0.95551	-0.065308	-0.008545	-0.079041	0.081329	-0.18341	-0.014648	-0.001678	0.003357	0.080566	0.033722	-0.14282	0.38513	0.17883	-0.11749	-0.004272	-0.055237	0.50354	-0.01358	-0.27008	-0.15762	-0.32105	-0.056	-0.12894	-0.02655	-0.17609	-0.022583	-0.18265	-0.070343	-0.001221	-0.009766
26.9	-0.017853	-0.81375	-0.06546	-0.012207	-0.020142	0.072632	-0.16586	-0.02243	-0.083313	-0.083008	0.028992	0.057831	-0.28183	0.36057	0.092926	-0.11826	0.003357	-0.094299	0.41031	-0.009766	0.039368	-0.13763	-0.33279	0.047913	-0.016479	-0.007324	-0.000763	0.15305	-0.10696	0.43716	-0.002289	-0.011749
26.901	-0.004578	-0.54428	-0.054169	-0.02182	-0.031738	0.1004	-0.11887	-0.027771	-0.16892	0.22324	-0.018768	0.11124	-0.92499	0.23239	0.10971	-0.12482	0.012054	-0.20859	0.29968	-0.052795	0.093842	-0.12009	-0.18295	-0.070648	0.050964	0.020294	-0.14954	0.050964	0.25635	0.18616	0.000153	-0.002594
26.902	0.005341	-0.17319	0.040283	-0.025787	0.088196	0.19486	-0.14511	-0.022888	-0.20721	1.0417	-0.054932	0.11704	-0.50491	0.25665	0.14755	-0.18097	0.067596	-0.17883	0.35385	-0.091553	-0.11475	-0.056305	-0.097656	-0.20859	-0.032501	0.016785	0.18341	0.04364	0.34454	-0.081177	-0.002136	-0.002289
